<mxfile host="app.diagrams.net" modified="2022-01-09T01:19:35.191Z" agent="5.0 (Windows NT 10.0; Win64; x64) AppleWebKit/537.36 (KHTML, like Gecko) Chrome/96.0.4664.110 Safari/537.36" etag="rgNCBMhRncSTqFIsshq9" version="15.5.2" type="github">
  <diagram id="bpvqkjl4aAlvQeULc8f-" name="Page-1">
    <mxGraphModel dx="1669" dy="2050" grid="1" gridSize="10" guides="1" tooltips="1" connect="1" arrows="1" fold="1" page="1" pageScale="1" pageWidth="1600" pageHeight="900" math="0" shadow="0">
      <root>
        <mxCell id="0" />
        <mxCell id="1" parent="0" />
        <mxCell id="51kKJXi9qUbgjsaaFKMb-114" value="" style="shape=cylinder3;whiteSpace=wrap;html=1;boundedLbl=1;backgroundOutline=1;size=15;" parent="1" vertex="1">
          <mxGeometry x="1315" y="-628" width="70" height="52" as="geometry" />
        </mxCell>
        <mxCell id="Fe0a1QcQC23-B5LmOg1T-1" value="1&lt;br style=&quot;font-size: 14px;&quot;&gt;Volume push - N+B parallel&lt;br style=&quot;font-size: 14px;&quot;&gt;Volume pull - N+B serial&lt;br style=&quot;font-size: 14px;&quot;&gt;2&lt;br style=&quot;font-size: 14px;&quot;&gt;Tone push - tone&lt;br style=&quot;font-size: 14px;&quot;&gt;Tone pull blender - half blender N+B single&lt;br style=&quot;font-size: 14px;&quot;&gt;&lt;br style=&quot;font-size: 14px;&quot;&gt;3&lt;br style=&quot;font-size: 14px;&quot;&gt;5-way switch 4 - M+B single&lt;br style=&quot;font-size: 14px;&quot;&gt;5-way switch 5 - B single" style="text;html=1;align=left;verticalAlign=middle;resizable=0;points=[];autosize=1;fontSize=14;" parent="1" vertex="1">
          <mxGeometry x="150" y="-323.5" width="280" height="180" as="geometry" />
        </mxCell>
        <mxCell id="51kKJXi9qUbgjsaaFKMb-68" value="" style="endArrow=none;html=1;startArrow=oval;startFill=0;" parent="1" edge="1">
          <mxGeometry width="50" height="50" relative="1" as="geometry">
            <mxPoint x="1481" y="-560" as="sourcePoint" />
            <mxPoint x="1481" y="-590" as="targetPoint" />
          </mxGeometry>
        </mxCell>
        <mxCell id="51kKJXi9qUbgjsaaFKMb-69" value="" style="endArrow=none;html=1;startArrow=oval;startFill=0;" parent="1" edge="1">
          <mxGeometry width="50" height="50" relative="1" as="geometry">
            <mxPoint x="1509" y="-560" as="sourcePoint" />
            <mxPoint x="1508.75" y="-590" as="targetPoint" />
          </mxGeometry>
        </mxCell>
        <mxCell id="51kKJXi9qUbgjsaaFKMb-70" value="" style="endArrow=none;html=1;startArrow=oval;startFill=0;" parent="1" edge="1">
          <mxGeometry width="50" height="50" relative="1" as="geometry">
            <mxPoint x="1539" y="-560" as="sourcePoint" />
            <mxPoint x="1539" y="-590" as="targetPoint" />
          </mxGeometry>
        </mxCell>
        <mxCell id="51kKJXi9qUbgjsaaFKMb-71" value="" style="shape=cylinder3;whiteSpace=wrap;html=1;boundedLbl=1;backgroundOutline=1;size=15;" parent="1" vertex="1">
          <mxGeometry x="1474" y="-628" width="70" height="52" as="geometry" />
        </mxCell>
        <mxCell id="51kKJXi9qUbgjsaaFKMb-72" value="" style="rounded=1;whiteSpace=wrap;html=1;direction=south;strokeWidth=2;opacity=60;fillColor=#FFCCCC;" parent="1" vertex="1">
          <mxGeometry x="150" y="-678" width="40" height="158" as="geometry" />
        </mxCell>
        <mxCell id="51kKJXi9qUbgjsaaFKMb-73" value="" style="ellipse;whiteSpace=wrap;html=1;aspect=fixed;" parent="1" vertex="1">
          <mxGeometry x="161" y="-670" width="18" height="18" as="geometry" />
        </mxCell>
        <mxCell id="51kKJXi9qUbgjsaaFKMb-100" value="" style="rounded=0;whiteSpace=wrap;html=1;direction=south;" parent="1" vertex="1">
          <mxGeometry x="1481.5" y="-680" width="55" height="70" as="geometry" />
        </mxCell>
        <mxCell id="51kKJXi9qUbgjsaaFKMb-101" value="" style="endArrow=none;html=1;startArrow=oval;startFill=0;" parent="1" edge="1">
          <mxGeometry width="50" height="50" relative="1" as="geometry">
            <mxPoint x="1491.5" y="-630.5" as="sourcePoint" />
            <mxPoint x="1501.5" y="-630.5" as="targetPoint" />
          </mxGeometry>
        </mxCell>
        <mxCell id="51kKJXi9qUbgjsaaFKMb-102" value="" style="endArrow=none;html=1;startArrow=oval;startFill=0;" parent="1" edge="1">
          <mxGeometry width="50" height="50" relative="1" as="geometry">
            <mxPoint x="1491.5" y="-650" as="sourcePoint" />
            <mxPoint x="1501.5" y="-650" as="targetPoint" />
          </mxGeometry>
        </mxCell>
        <mxCell id="51kKJXi9qUbgjsaaFKMb-103" value="" style="endArrow=none;html=1;startArrow=oval;startFill=0;" parent="1" edge="1">
          <mxGeometry width="50" height="50" relative="1" as="geometry">
            <mxPoint x="1491.5" y="-670" as="sourcePoint" />
            <mxPoint x="1501.5" y="-670" as="targetPoint" />
          </mxGeometry>
        </mxCell>
        <mxCell id="51kKJXi9qUbgjsaaFKMb-104" value="" style="endArrow=none;html=1;startArrow=oval;startFill=0;" parent="1" edge="1">
          <mxGeometry width="50" height="50" relative="1" as="geometry">
            <mxPoint x="1521.5" y="-630.25" as="sourcePoint" />
            <mxPoint x="1531.5" y="-630.25" as="targetPoint" />
          </mxGeometry>
        </mxCell>
        <mxCell id="51kKJXi9qUbgjsaaFKMb-105" value="" style="endArrow=none;html=1;startArrow=oval;startFill=0;" parent="1" edge="1">
          <mxGeometry width="50" height="50" relative="1" as="geometry">
            <mxPoint x="1521.5" y="-650" as="sourcePoint" />
            <mxPoint x="1531.5" y="-650" as="targetPoint" />
          </mxGeometry>
        </mxCell>
        <mxCell id="51kKJXi9qUbgjsaaFKMb-106" value="" style="endArrow=none;html=1;startArrow=oval;startFill=0;" parent="1" edge="1">
          <mxGeometry width="50" height="50" relative="1" as="geometry">
            <mxPoint x="1521.5" y="-670" as="sourcePoint" />
            <mxPoint x="1531.5" y="-670" as="targetPoint" />
          </mxGeometry>
        </mxCell>
        <mxCell id="51kKJXi9qUbgjsaaFKMb-107" value="" style="endArrow=none;html=1;startArrow=oval;startFill=0;" parent="1" edge="1">
          <mxGeometry width="50" height="50" relative="1" as="geometry">
            <mxPoint x="1129.5" y="-564" as="sourcePoint" />
            <mxPoint x="1129.5" y="-594" as="targetPoint" />
          </mxGeometry>
        </mxCell>
        <mxCell id="51kKJXi9qUbgjsaaFKMb-108" value="" style="endArrow=none;html=1;startArrow=oval;startFill=0;" parent="1" edge="1">
          <mxGeometry width="50" height="50" relative="1" as="geometry">
            <mxPoint x="1157.5" y="-564" as="sourcePoint" />
            <mxPoint x="1157.25" y="-594" as="targetPoint" />
          </mxGeometry>
        </mxCell>
        <mxCell id="51kKJXi9qUbgjsaaFKMb-109" value="" style="endArrow=none;html=1;startArrow=oval;startFill=0;" parent="1" edge="1">
          <mxGeometry width="50" height="50" relative="1" as="geometry">
            <mxPoint x="1187.5" y="-564" as="sourcePoint" />
            <mxPoint x="1187.5" y="-594" as="targetPoint" />
          </mxGeometry>
        </mxCell>
        <mxCell id="51kKJXi9qUbgjsaaFKMb-110" value="" style="shape=cylinder3;whiteSpace=wrap;html=1;boundedLbl=1;backgroundOutline=1;size=15;" parent="1" vertex="1">
          <mxGeometry x="1117.5" y="-634" width="80" height="52" as="geometry" />
        </mxCell>
        <mxCell id="51kKJXi9qUbgjsaaFKMb-111" value="" style="endArrow=none;html=1;startArrow=oval;startFill=0;" parent="1" edge="1">
          <mxGeometry width="50" height="50" relative="1" as="geometry">
            <mxPoint x="1322" y="-558" as="sourcePoint" />
            <mxPoint x="1322" y="-588" as="targetPoint" />
          </mxGeometry>
        </mxCell>
        <mxCell id="51kKJXi9qUbgjsaaFKMb-112" value="" style="endArrow=none;html=1;startArrow=oval;startFill=0;" parent="1" edge="1">
          <mxGeometry width="50" height="50" relative="1" as="geometry">
            <mxPoint x="1350" y="-558" as="sourcePoint" />
            <mxPoint x="1349.75" y="-588" as="targetPoint" />
          </mxGeometry>
        </mxCell>
        <mxCell id="51kKJXi9qUbgjsaaFKMb-113" value="" style="endArrow=none;html=1;startArrow=oval;startFill=0;" parent="1" edge="1">
          <mxGeometry width="50" height="50" relative="1" as="geometry">
            <mxPoint x="1380" y="-558" as="sourcePoint" />
            <mxPoint x="1380" y="-588" as="targetPoint" />
          </mxGeometry>
        </mxCell>
        <mxCell id="51kKJXi9qUbgjsaaFKMb-115" value="" style="rounded=0;whiteSpace=wrap;html=1;direction=south;" parent="1" vertex="1">
          <mxGeometry x="1322.5" y="-678" width="55" height="70" as="geometry" />
        </mxCell>
        <mxCell id="51kKJXi9qUbgjsaaFKMb-116" value="" style="endArrow=none;html=1;startArrow=oval;startFill=0;" parent="1" edge="1">
          <mxGeometry width="50" height="50" relative="1" as="geometry">
            <mxPoint x="1332.5" y="-628.5" as="sourcePoint" />
            <mxPoint x="1342.5" y="-628.5" as="targetPoint" />
          </mxGeometry>
        </mxCell>
        <mxCell id="51kKJXi9qUbgjsaaFKMb-117" value="" style="endArrow=none;html=1;startArrow=oval;startFill=0;" parent="1" edge="1">
          <mxGeometry width="50" height="50" relative="1" as="geometry">
            <mxPoint x="1332.5" y="-648" as="sourcePoint" />
            <mxPoint x="1342.5" y="-648" as="targetPoint" />
          </mxGeometry>
        </mxCell>
        <mxCell id="51kKJXi9qUbgjsaaFKMb-118" value="" style="endArrow=none;html=1;startArrow=oval;startFill=0;" parent="1" edge="1">
          <mxGeometry width="50" height="50" relative="1" as="geometry">
            <mxPoint x="1332.5" y="-668" as="sourcePoint" />
            <mxPoint x="1342.5" y="-668" as="targetPoint" />
          </mxGeometry>
        </mxCell>
        <mxCell id="51kKJXi9qUbgjsaaFKMb-119" value="" style="endArrow=none;html=1;startArrow=oval;startFill=0;" parent="1" edge="1">
          <mxGeometry width="50" height="50" relative="1" as="geometry">
            <mxPoint x="1362.5" y="-628.25" as="sourcePoint" />
            <mxPoint x="1372.5" y="-628.25" as="targetPoint" />
          </mxGeometry>
        </mxCell>
        <mxCell id="51kKJXi9qUbgjsaaFKMb-120" value="" style="endArrow=none;html=1;startArrow=oval;startFill=0;" parent="1" edge="1">
          <mxGeometry width="50" height="50" relative="1" as="geometry">
            <mxPoint x="1362.5" y="-648" as="sourcePoint" />
            <mxPoint x="1372.5" y="-648" as="targetPoint" />
          </mxGeometry>
        </mxCell>
        <mxCell id="51kKJXi9qUbgjsaaFKMb-121" value="" style="endArrow=none;html=1;startArrow=oval;startFill=0;" parent="1" edge="1">
          <mxGeometry width="50" height="50" relative="1" as="geometry">
            <mxPoint x="1362.5" y="-668" as="sourcePoint" />
            <mxPoint x="1372.5" y="-668" as="targetPoint" />
          </mxGeometry>
        </mxCell>
        <mxCell id="51kKJXi9qUbgjsaaFKMb-122" value="" style="endArrow=none;html=1;strokeWidth=2;fillColor=#f8cecc;strokeColor=#FA0B02;edgeStyle=orthogonalEdgeStyle;" parent="1" edge="1">
          <mxGeometry width="50" height="50" relative="1" as="geometry">
            <mxPoint x="108.5" y="-678" as="sourcePoint" />
            <mxPoint x="740" y="-640" as="targetPoint" />
            <Array as="points">
              <mxPoint x="109" y="-800" />
              <mxPoint x="740" y="-800" />
            </Array>
          </mxGeometry>
        </mxCell>
        <mxCell id="51kKJXi9qUbgjsaaFKMb-123" value="" style="endArrow=none;html=1;strokeWidth=2;fillColor=#f8cecc;strokeColor=#66CC00;startArrow=circlePlus;startFill=0;" parent="1" edge="1">
          <mxGeometry width="50" height="50" relative="1" as="geometry">
            <mxPoint x="40" y="-470" as="sourcePoint" />
            <mxPoint x="39.99999999999994" y="-520" as="targetPoint" />
          </mxGeometry>
        </mxCell>
        <mxCell id="51kKJXi9qUbgjsaaFKMb-124" value="" style="endArrow=none;html=1;strokeWidth=2;fillColor=#f8cecc;startArrow=none;startFill=0;edgeStyle=orthogonalEdgeStyle;" parent="1" edge="1">
          <mxGeometry width="50" height="50" relative="1" as="geometry">
            <mxPoint x="440" y="-550" as="sourcePoint" />
            <mxPoint x="80.00000000000006" y="-522" as="targetPoint" />
            <Array as="points">
              <mxPoint x="440" y="-400" />
              <mxPoint x="80" y="-400" />
            </Array>
          </mxGeometry>
        </mxCell>
        <mxCell id="51kKJXi9qUbgjsaaFKMb-125" value="" style="endArrow=none;html=1;strokeWidth=2;fillColor=#f8cecc;strokeColor=#E6E6E6;edgeStyle=orthogonalEdgeStyle;rounded=1;shadow=1;" parent="1" edge="1">
          <mxGeometry width="50" height="50" relative="1" as="geometry">
            <mxPoint x="780" y="-550" as="sourcePoint" />
            <mxPoint x="69.00000000000009" y="-522" as="targetPoint" />
            <Array as="points">
              <mxPoint x="780" y="-360" />
              <mxPoint x="69" y="-360" />
            </Array>
          </mxGeometry>
        </mxCell>
        <mxCell id="51kKJXi9qUbgjsaaFKMb-126" value="" style="endArrow=none;html=1;startArrow=oval;startFill=0;strokeWidth=3;" parent="1" edge="1">
          <mxGeometry width="50" height="50" relative="1" as="geometry">
            <mxPoint x="1240" y="-78.25" as="sourcePoint" />
            <mxPoint x="1255" y="-78.25" as="targetPoint" />
          </mxGeometry>
        </mxCell>
        <mxCell id="51kKJXi9qUbgjsaaFKMb-127" value="" style="rounded=0;whiteSpace=wrap;html=1;" parent="1" vertex="1">
          <mxGeometry x="1255" y="-138" width="30" height="120" as="geometry" />
        </mxCell>
        <mxCell id="51kKJXi9qUbgjsaaFKMb-128" value="" style="endArrow=none;html=1;startArrow=oval;startFill=0;strokeWidth=3;entryX=0;entryY=0.286;entryDx=0;entryDy=0;entryPerimeter=0;" parent="1" edge="1">
          <mxGeometry width="50" height="50" relative="1" as="geometry">
            <mxPoint x="1240" y="-58" as="sourcePoint" />
            <mxPoint x="1255" y="-57.960000000000036" as="targetPoint" />
          </mxGeometry>
        </mxCell>
        <mxCell id="51kKJXi9qUbgjsaaFKMb-129" value="" style="endArrow=none;html=1;startArrow=oval;startFill=0;strokeWidth=3;entryX=0;entryY=0.286;entryDx=0;entryDy=0;entryPerimeter=0;" parent="1" edge="1">
          <mxGeometry width="50" height="50" relative="1" as="geometry">
            <mxPoint x="1240" y="-98" as="sourcePoint" />
            <mxPoint x="1255" y="-97.96000000000004" as="targetPoint" />
          </mxGeometry>
        </mxCell>
        <mxCell id="51kKJXi9qUbgjsaaFKMb-130" value="c" style="endArrow=none;html=1;startArrow=oval;startFill=0;strokeWidth=3;entryX=0;entryY=0.286;entryDx=0;entryDy=0;entryPerimeter=0;spacing=9;spacingTop=17;fontStyle=1" parent="1" edge="1">
          <mxGeometry width="50" height="50" relative="1" as="geometry">
            <mxPoint x="1240" y="-38" as="sourcePoint" />
            <mxPoint x="1255" y="-37.960000000000036" as="targetPoint" />
          </mxGeometry>
        </mxCell>
        <mxCell id="51kKJXi9qUbgjsaaFKMb-131" value="" style="endArrow=none;html=1;startArrow=oval;startFill=0;strokeWidth=3;" parent="1" edge="1">
          <mxGeometry width="50" height="50" relative="1" as="geometry">
            <mxPoint x="1285" y="-58.5" as="sourcePoint" />
            <mxPoint x="1300" y="-58.5" as="targetPoint" />
          </mxGeometry>
        </mxCell>
        <mxCell id="51kKJXi9qUbgjsaaFKMb-132" value="" style="endArrow=none;html=1;startArrow=oval;startFill=0;strokeWidth=3;entryX=0;entryY=0.286;entryDx=0;entryDy=0;entryPerimeter=0;" parent="1" edge="1">
          <mxGeometry width="50" height="50" relative="1" as="geometry">
            <mxPoint x="1285" y="-78.25" as="sourcePoint" />
            <mxPoint x="1300" y="-78.21000000000004" as="targetPoint" />
          </mxGeometry>
        </mxCell>
        <mxCell id="51kKJXi9qUbgjsaaFKMb-133" value="" style="endArrow=none;html=1;startArrow=oval;startFill=0;strokeWidth=3;entryX=0;entryY=0.286;entryDx=0;entryDy=0;entryPerimeter=0;" parent="1" edge="1">
          <mxGeometry width="50" height="50" relative="1" as="geometry">
            <mxPoint x="1285" y="-98" as="sourcePoint" />
            <mxPoint x="1300" y="-97.96000000000004" as="targetPoint" />
            <Array as="points">
              <mxPoint x="1300" y="-98" />
            </Array>
          </mxGeometry>
        </mxCell>
        <mxCell id="51kKJXi9qUbgjsaaFKMb-134" value="c" style="endArrow=none;html=1;startArrow=oval;startFill=0;strokeWidth=3;entryX=0;entryY=0.286;entryDx=0;entryDy=0;entryPerimeter=0;jumpSize=0;spacingTop=-19;fontStyle=1" parent="1" edge="1">
          <mxGeometry width="50" height="50" relative="1" as="geometry">
            <mxPoint x="1285" y="-118" as="sourcePoint" />
            <mxPoint x="1300" y="-117.96000000000004" as="targetPoint" />
          </mxGeometry>
        </mxCell>
        <mxCell id="51kKJXi9qUbgjsaaFKMb-135" value="&lt;div style=&quot;text-align: left ; font-size: 14px&quot;&gt;&lt;span style=&quot;font-size: 14px&quot;&gt;&lt;b style=&quot;font-size: 14px&quot;&gt;Switch&lt;/b&gt;&lt;/span&gt;&lt;/div&gt;&lt;div style=&quot;text-align: left ; font-size: 14px&quot;&gt;&lt;span style=&quot;font-size: 14px&quot;&gt;1: Neck&lt;/span&gt;&lt;/div&gt;&lt;div style=&quot;text-align: left ; font-size: 14px&quot;&gt;&lt;span style=&quot;font-size: 14px&quot;&gt;2: Neck parallel with Middle&lt;/span&gt;&lt;/div&gt;&lt;div style=&quot;text-align: left&quot;&gt;3: Neck parallel with Bridge south coil&lt;/div&gt;&lt;div style=&quot;text-align: left ; font-size: 14px&quot;&gt;&lt;span style=&quot;font-size: 14px&quot;&gt;4: Middle parallel with Bridge north coil&lt;/span&gt;&lt;/div&gt;&lt;div style=&quot;text-align: left ; font-size: 14px&quot;&gt;&lt;span style=&quot;font-size: 14px&quot;&gt;5: Bridge HB serial&lt;/span&gt;&lt;/div&gt;" style="text;html=1;align=center;verticalAlign=middle;resizable=0;points=[];autosize=1;strokeColor=none;fillColor=none;fontSize=14;" parent="1" vertex="1">
          <mxGeometry x="920" y="-340" width="260" height="110" as="geometry" />
        </mxCell>
        <mxCell id="51kKJXi9qUbgjsaaFKMb-136" value="&lt;b style=&quot;font-size: 14px&quot;&gt;Tone LPF&lt;/b&gt;&lt;br style=&quot;font-size: 14px&quot;&gt;Push: HB serial&lt;br style=&quot;font-size: 14px&quot;&gt;Pull: HB parallel" style="text;html=1;align=left;verticalAlign=middle;resizable=0;points=[];autosize=1;strokeColor=none;fillColor=none;fontSize=14;" parent="1" vertex="1">
          <mxGeometry x="670" y="-290" width="120" height="60" as="geometry" />
        </mxCell>
        <mxCell id="asJu54X23L_uqpBQXGJ8-4" value="c" style="endArrow=none;html=1;startArrow=oval;startFill=0;strokeWidth=3;jumpSize=0;spacingTop=-19;fontStyle=0;startSize=12;endSize=8;fontSize=16;sourcePerimeterSpacing=0;targetPerimeterSpacing=0;" parent="1" edge="1">
          <mxGeometry x="0.3333" y="10" width="50" height="50" relative="1" as="geometry">
            <mxPoint x="440" y="-617" as="sourcePoint" />
            <mxPoint x="440" y="-647" as="targetPoint" />
            <mxPoint as="offset" />
          </mxGeometry>
        </mxCell>
        <mxCell id="asJu54X23L_uqpBQXGJ8-5" value="1" style="endArrow=none;html=1;startArrow=oval;startFill=0;strokeWidth=3;jumpSize=0;spacingTop=-19;fontStyle=0;startSize=12;endSize=8;fontSize=16;sourcePerimeterSpacing=0;targetPerimeterSpacing=0;verticalAlign=bottom;spacing=10;spacingRight=0;" parent="1" edge="1">
          <mxGeometry x="-0.3333" y="10" width="50" height="50" relative="1" as="geometry">
            <mxPoint x="499.5" y="-618" as="sourcePoint" />
            <mxPoint x="499.5" y="-648" as="targetPoint" />
            <mxPoint as="offset" />
          </mxGeometry>
        </mxCell>
        <mxCell id="asJu54X23L_uqpBQXGJ8-6" value="2" style="endArrow=none;html=1;startArrow=oval;startFill=0;strokeWidth=3;jumpSize=0;spacingTop=-19;fontStyle=0;startSize=12;endSize=8;fontSize=16;sourcePerimeterSpacing=0;targetPerimeterSpacing=0;spacingRight=0;spacing=10;verticalAlign=bottom;" parent="1" edge="1">
          <mxGeometry x="-0.3333" y="10" width="50" height="50" relative="1" as="geometry">
            <mxPoint x="540" y="-618" as="sourcePoint" />
            <mxPoint x="539.5" y="-648" as="targetPoint" />
            <mxPoint as="offset" />
          </mxGeometry>
        </mxCell>
        <mxCell id="asJu54X23L_uqpBQXGJ8-7" value="3" style="endArrow=none;html=1;startArrow=oval;startFill=0;strokeWidth=3;jumpSize=0;spacingTop=-19;fontStyle=0;startSize=12;endSize=8;fontSize=16;sourcePerimeterSpacing=0;targetPerimeterSpacing=0;spacingRight=0;verticalAlign=bottom;spacing=10;" parent="1" edge="1">
          <mxGeometry x="-0.3333" y="10" width="50" height="50" relative="1" as="geometry">
            <mxPoint x="579.5" y="-618" as="sourcePoint" />
            <mxPoint x="579.5" y="-648" as="targetPoint" />
            <mxPoint as="offset" />
          </mxGeometry>
        </mxCell>
        <mxCell id="asJu54X23L_uqpBQXGJ8-8" value="4" style="endArrow=none;html=1;startArrow=oval;startFill=0;strokeWidth=3;jumpSize=0;spacingTop=-19;fontStyle=0;startSize=12;endSize=8;fontSize=16;sourcePerimeterSpacing=0;targetPerimeterSpacing=0;spacingRight=0;verticalAlign=bottom;spacing=10;" parent="1" edge="1">
          <mxGeometry x="-0.3333" y="10" width="50" height="50" relative="1" as="geometry">
            <mxPoint x="620.5" y="-618" as="sourcePoint" />
            <mxPoint x="620.5" y="-648" as="targetPoint" />
            <mxPoint as="offset" />
          </mxGeometry>
        </mxCell>
        <mxCell id="asJu54X23L_uqpBQXGJ8-9" value="5" style="endArrow=none;html=1;startArrow=oval;startFill=0;strokeWidth=3;jumpSize=0;spacingTop=-19;fontStyle=0;startSize=12;endSize=8;fontSize=16;sourcePerimeterSpacing=0;targetPerimeterSpacing=0;spacingRight=0;verticalAlign=bottom;spacing=10;" parent="1" edge="1">
          <mxGeometry x="-0.3333" y="10" width="50" height="50" relative="1" as="geometry">
            <mxPoint x="660.5" y="-618" as="sourcePoint" />
            <mxPoint x="660.5" y="-648" as="targetPoint" />
            <mxPoint as="offset" />
          </mxGeometry>
        </mxCell>
        <mxCell id="asJu54X23L_uqpBQXGJ8-10" value="c" style="endArrow=none;html=1;startArrow=oval;startFill=0;strokeWidth=3;jumpSize=0;spacingTop=-19;fontStyle=0;startSize=12;endSize=8;fontSize=16;sourcePerimeterSpacing=0;targetPerimeterSpacing=0;" parent="1" edge="1">
          <mxGeometry x="1" y="-10" width="50" height="50" relative="1" as="geometry">
            <mxPoint x="440" y="-577" as="sourcePoint" />
            <mxPoint x="440" y="-547" as="targetPoint" />
            <mxPoint as="offset" />
          </mxGeometry>
        </mxCell>
        <mxCell id="asJu54X23L_uqpBQXGJ8-11" value="" style="endArrow=none;html=1;startArrow=oval;startFill=0;strokeWidth=3;jumpSize=0;spacingTop=-19;fontStyle=0;startSize=12;endSize=8;fontSize=16;sourcePerimeterSpacing=0;targetPerimeterSpacing=0;" parent="1" edge="1">
          <mxGeometry x="-0.3333" y="10" width="50" height="50" relative="1" as="geometry">
            <mxPoint x="499.5" y="-578" as="sourcePoint" />
            <mxPoint x="499.5" y="-548" as="targetPoint" />
            <mxPoint as="offset" />
          </mxGeometry>
        </mxCell>
        <mxCell id="asJu54X23L_uqpBQXGJ8-12" value="" style="endArrow=none;html=1;startArrow=oval;startFill=0;strokeWidth=3;jumpSize=0;spacingTop=-19;fontStyle=0;startSize=12;endSize=8;fontSize=16;sourcePerimeterSpacing=0;targetPerimeterSpacing=0;" parent="1" edge="1">
          <mxGeometry x="-0.3333" y="10" width="50" height="50" relative="1" as="geometry">
            <mxPoint x="539.5" y="-578" as="sourcePoint" />
            <mxPoint x="539.5" y="-548" as="targetPoint" />
            <mxPoint as="offset" />
          </mxGeometry>
        </mxCell>
        <mxCell id="asJu54X23L_uqpBQXGJ8-13" value="" style="endArrow=none;html=1;startArrow=oval;startFill=0;strokeWidth=3;jumpSize=0;spacingTop=-19;fontStyle=0;startSize=12;endSize=8;fontSize=16;sourcePerimeterSpacing=0;targetPerimeterSpacing=0;" parent="1" edge="1">
          <mxGeometry x="-0.3333" y="10" width="50" height="50" relative="1" as="geometry">
            <mxPoint x="579.5" y="-578" as="sourcePoint" />
            <mxPoint x="579.5" y="-548" as="targetPoint" />
            <mxPoint as="offset" />
          </mxGeometry>
        </mxCell>
        <mxCell id="asJu54X23L_uqpBQXGJ8-14" value="" style="endArrow=none;html=1;startArrow=oval;startFill=0;strokeWidth=3;jumpSize=0;spacingTop=-19;fontStyle=0;startSize=12;endSize=8;fontSize=16;sourcePerimeterSpacing=0;targetPerimeterSpacing=0;" parent="1" edge="1">
          <mxGeometry x="-0.3333" y="10" width="50" height="50" relative="1" as="geometry">
            <mxPoint x="619.5" y="-578" as="sourcePoint" />
            <mxPoint x="619.5" y="-548" as="targetPoint" />
            <mxPoint as="offset" />
          </mxGeometry>
        </mxCell>
        <mxCell id="asJu54X23L_uqpBQXGJ8-15" value="" style="endArrow=none;html=1;startArrow=oval;startFill=0;strokeWidth=3;jumpSize=0;spacingTop=-19;fontStyle=0;startSize=12;endSize=8;fontSize=16;sourcePerimeterSpacing=0;targetPerimeterSpacing=0;" parent="1" edge="1">
          <mxGeometry x="-0.3333" y="10" width="50" height="50" relative="1" as="geometry">
            <mxPoint x="659.5" y="-578" as="sourcePoint" />
            <mxPoint x="659.5" y="-548" as="targetPoint" />
            <mxPoint as="offset" />
          </mxGeometry>
        </mxCell>
        <mxCell id="asJu54X23L_uqpBQXGJ8-16" value="c" style="endArrow=none;html=1;startArrow=oval;startFill=0;strokeWidth=3;jumpSize=0;spacingTop=-19;fontStyle=0;startSize=12;endSize=8;fontSize=16;sourcePerimeterSpacing=0;targetPerimeterSpacing=0;" parent="1" edge="1">
          <mxGeometry x="1" y="10" width="50" height="50" relative="1" as="geometry">
            <mxPoint x="960.5" y="-577" as="sourcePoint" />
            <mxPoint x="960.5" y="-547" as="targetPoint" />
            <mxPoint as="offset" />
          </mxGeometry>
        </mxCell>
        <mxCell id="asJu54X23L_uqpBQXGJ8-17" value="" style="endArrow=none;html=1;startArrow=oval;startFill=0;strokeWidth=3;jumpSize=0;spacingTop=-19;fontStyle=0;startSize=12;endSize=8;fontSize=16;sourcePerimeterSpacing=0;targetPerimeterSpacing=0;" parent="1" edge="1">
          <mxGeometry x="-0.3333" y="10" width="50" height="50" relative="1" as="geometry">
            <mxPoint x="779.5" y="-578" as="sourcePoint" />
            <mxPoint x="779.5" y="-548" as="targetPoint" />
            <mxPoint as="offset" />
          </mxGeometry>
        </mxCell>
        <mxCell id="asJu54X23L_uqpBQXGJ8-18" value="" style="endArrow=none;html=1;startArrow=oval;startFill=0;strokeWidth=3;jumpSize=0;spacingTop=-19;fontStyle=0;startSize=12;endSize=8;fontSize=16;sourcePerimeterSpacing=0;targetPerimeterSpacing=0;" parent="1" edge="1">
          <mxGeometry x="-0.3333" y="10" width="50" height="50" relative="1" as="geometry">
            <mxPoint x="819.5" y="-578" as="sourcePoint" />
            <mxPoint x="819.5" y="-548" as="targetPoint" />
            <mxPoint as="offset" />
          </mxGeometry>
        </mxCell>
        <mxCell id="asJu54X23L_uqpBQXGJ8-19" value="" style="endArrow=none;html=1;startArrow=oval;startFill=0;strokeWidth=3;jumpSize=0;spacingTop=-19;fontStyle=0;startSize=12;endSize=8;fontSize=16;sourcePerimeterSpacing=0;targetPerimeterSpacing=0;" parent="1" edge="1">
          <mxGeometry x="-0.3333" y="10" width="50" height="50" relative="1" as="geometry">
            <mxPoint x="859.5" y="-578" as="sourcePoint" />
            <mxPoint x="859.5" y="-548" as="targetPoint" />
            <mxPoint as="offset" />
          </mxGeometry>
        </mxCell>
        <mxCell id="asJu54X23L_uqpBQXGJ8-20" value="" style="endArrow=none;html=1;startArrow=oval;startFill=0;strokeWidth=3;jumpSize=0;spacingTop=-19;fontStyle=0;startSize=12;endSize=8;fontSize=16;sourcePerimeterSpacing=0;targetPerimeterSpacing=0;" parent="1" edge="1">
          <mxGeometry x="-0.3333" y="10" width="50" height="50" relative="1" as="geometry">
            <mxPoint x="899.5" y="-578" as="sourcePoint" />
            <mxPoint x="899.5" y="-548" as="targetPoint" />
            <mxPoint as="offset" />
          </mxGeometry>
        </mxCell>
        <mxCell id="asJu54X23L_uqpBQXGJ8-21" value="" style="endArrow=none;html=1;startArrow=oval;startFill=0;strokeWidth=3;jumpSize=0;spacingTop=-19;fontStyle=0;startSize=12;endSize=8;fontSize=16;sourcePerimeterSpacing=0;targetPerimeterSpacing=0;" parent="1" edge="1">
          <mxGeometry x="-0.3333" y="10" width="50" height="50" relative="1" as="geometry">
            <mxPoint x="739.5" y="-578" as="sourcePoint" />
            <mxPoint x="739.5" y="-548" as="targetPoint" />
            <mxPoint as="offset" />
          </mxGeometry>
        </mxCell>
        <mxCell id="asJu54X23L_uqpBQXGJ8-22" value="c" style="endArrow=none;html=1;startArrow=oval;startFill=0;strokeWidth=3;jumpSize=0;spacingTop=-19;fontStyle=0;startSize=12;endSize=8;fontSize=16;sourcePerimeterSpacing=0;targetPerimeterSpacing=0;" parent="1" edge="1">
          <mxGeometry x="0.3333" y="-10" width="50" height="50" relative="1" as="geometry">
            <mxPoint x="960.5" y="-617" as="sourcePoint" />
            <mxPoint x="960.5" y="-647" as="targetPoint" />
            <mxPoint as="offset" />
          </mxGeometry>
        </mxCell>
        <mxCell id="asJu54X23L_uqpBQXGJ8-23" value="2" style="endArrow=none;html=1;startArrow=oval;startFill=0;strokeWidth=3;jumpSize=0;spacingTop=-19;fontStyle=0;startSize=12;endSize=8;fontSize=16;sourcePerimeterSpacing=0;targetPerimeterSpacing=0;spacingRight=0;verticalAlign=bottom;spacing=10;" parent="1" edge="1">
          <mxGeometry x="-0.3333" y="10" width="50" height="50" relative="1" as="geometry">
            <mxPoint x="780.5" y="-618" as="sourcePoint" />
            <mxPoint x="780.5" y="-648" as="targetPoint" />
            <mxPoint as="offset" />
          </mxGeometry>
        </mxCell>
        <mxCell id="asJu54X23L_uqpBQXGJ8-24" value="3" style="endArrow=none;html=1;startArrow=oval;startFill=0;strokeWidth=3;jumpSize=0;spacingTop=-19;fontStyle=0;startSize=12;endSize=8;fontSize=16;sourcePerimeterSpacing=0;targetPerimeterSpacing=0;spacingRight=0;verticalAlign=bottom;spacing=10;" parent="1" edge="1">
          <mxGeometry x="-0.3333" y="10" width="50" height="50" relative="1" as="geometry">
            <mxPoint x="820.5" y="-618" as="sourcePoint" />
            <mxPoint x="820.5" y="-648" as="targetPoint" />
            <mxPoint as="offset" />
          </mxGeometry>
        </mxCell>
        <mxCell id="asJu54X23L_uqpBQXGJ8-25" value="4" style="endArrow=none;html=1;startArrow=oval;startFill=0;strokeWidth=3;jumpSize=0;spacingTop=-19;fontStyle=0;startSize=12;endSize=8;fontSize=16;sourcePerimeterSpacing=0;targetPerimeterSpacing=0;spacingRight=0;verticalAlign=bottom;spacing=10;" parent="1" edge="1">
          <mxGeometry x="-0.3333" y="10" width="50" height="50" relative="1" as="geometry">
            <mxPoint x="860.5" y="-618" as="sourcePoint" />
            <mxPoint x="860.5" y="-648" as="targetPoint" />
            <mxPoint as="offset" />
          </mxGeometry>
        </mxCell>
        <mxCell id="asJu54X23L_uqpBQXGJ8-26" value="5" style="endArrow=none;html=1;startArrow=oval;startFill=0;strokeWidth=3;jumpSize=0;spacingTop=-19;fontStyle=0;startSize=12;endSize=8;fontSize=16;sourcePerimeterSpacing=0;targetPerimeterSpacing=0;spacingRight=0;verticalAlign=bottom;spacing=10;" parent="1" edge="1">
          <mxGeometry x="-0.3333" y="10" width="50" height="50" relative="1" as="geometry">
            <mxPoint x="900.5" y="-618" as="sourcePoint" />
            <mxPoint x="900.5" y="-648" as="targetPoint" />
            <mxPoint as="offset" />
          </mxGeometry>
        </mxCell>
        <mxCell id="asJu54X23L_uqpBQXGJ8-27" value="1" style="endArrow=none;html=1;startArrow=oval;startFill=0;strokeWidth=3;jumpSize=0;spacingTop=-19;fontStyle=0;startSize=12;endSize=8;fontSize=16;sourcePerimeterSpacing=0;targetPerimeterSpacing=0;spacingRight=0;verticalAlign=bottom;spacing=10;" parent="1" edge="1">
          <mxGeometry x="-0.3333" y="10" width="50" height="50" relative="1" as="geometry">
            <mxPoint x="740.5" y="-618" as="sourcePoint" />
            <mxPoint x="740.5" y="-648" as="targetPoint" />
            <mxPoint as="offset" />
          </mxGeometry>
        </mxCell>
        <mxCell id="asJu54X23L_uqpBQXGJ8-30" value="" style="ellipse;whiteSpace=wrap;html=1;aspect=fixed;" parent="1" vertex="1">
          <mxGeometry x="161" y="-646" width="18" height="18" as="geometry" />
        </mxCell>
        <mxCell id="asJu54X23L_uqpBQXGJ8-31" value="" style="ellipse;whiteSpace=wrap;html=1;aspect=fixed;" parent="1" vertex="1">
          <mxGeometry x="161" y="-622" width="18" height="18" as="geometry" />
        </mxCell>
        <mxCell id="asJu54X23L_uqpBQXGJ8-32" value="" style="ellipse;whiteSpace=wrap;html=1;aspect=fixed;" parent="1" vertex="1">
          <mxGeometry x="161" y="-598" width="18" height="18" as="geometry" />
        </mxCell>
        <mxCell id="asJu54X23L_uqpBQXGJ8-33" value="" style="ellipse;whiteSpace=wrap;html=1;aspect=fixed;" parent="1" vertex="1">
          <mxGeometry x="161" y="-574" width="18" height="18" as="geometry" />
        </mxCell>
        <mxCell id="asJu54X23L_uqpBQXGJ8-34" value="" style="ellipse;whiteSpace=wrap;html=1;aspect=fixed;" parent="1" vertex="1">
          <mxGeometry x="161" y="-550" width="18" height="18" as="geometry" />
        </mxCell>
        <mxCell id="asJu54X23L_uqpBQXGJ8-42" value="" style="rounded=1;whiteSpace=wrap;html=1;direction=south;opacity=60;strokeWidth=2;fillColor=#99CCFF;" parent="1" vertex="1">
          <mxGeometry x="230" y="-678" width="40" height="158" as="geometry" />
        </mxCell>
        <mxCell id="asJu54X23L_uqpBQXGJ8-43" value="" style="ellipse;whiteSpace=wrap;html=1;aspect=fixed;" parent="1" vertex="1">
          <mxGeometry x="241" y="-670" width="18" height="18" as="geometry" />
        </mxCell>
        <mxCell id="asJu54X23L_uqpBQXGJ8-44" value="" style="ellipse;whiteSpace=wrap;html=1;aspect=fixed;" parent="1" vertex="1">
          <mxGeometry x="241" y="-646" width="18" height="18" as="geometry" />
        </mxCell>
        <mxCell id="asJu54X23L_uqpBQXGJ8-45" value="" style="ellipse;whiteSpace=wrap;html=1;aspect=fixed;" parent="1" vertex="1">
          <mxGeometry x="241" y="-622" width="18" height="18" as="geometry" />
        </mxCell>
        <mxCell id="asJu54X23L_uqpBQXGJ8-46" value="" style="ellipse;whiteSpace=wrap;html=1;aspect=fixed;" parent="1" vertex="1">
          <mxGeometry x="241" y="-598" width="18" height="18" as="geometry" />
        </mxCell>
        <mxCell id="asJu54X23L_uqpBQXGJ8-47" value="" style="ellipse;whiteSpace=wrap;html=1;aspect=fixed;" parent="1" vertex="1">
          <mxGeometry x="241" y="-574" width="18" height="18" as="geometry" />
        </mxCell>
        <mxCell id="asJu54X23L_uqpBQXGJ8-48" value="" style="ellipse;whiteSpace=wrap;html=1;aspect=fixed;" parent="1" vertex="1">
          <mxGeometry x="241" y="-550" width="18" height="18" as="geometry" />
        </mxCell>
        <mxCell id="asJu54X23L_uqpBQXGJ8-49" value="" style="rounded=1;whiteSpace=wrap;html=1;direction=south;strokeWidth=2;opacity=50;fillColor=#99CCFF;" parent="1" vertex="1">
          <mxGeometry x="70" y="-680" width="40" height="158" as="geometry" />
        </mxCell>
        <mxCell id="asJu54X23L_uqpBQXGJ8-50" value="" style="ellipse;whiteSpace=wrap;html=1;aspect=fixed;" parent="1" vertex="1">
          <mxGeometry x="81" y="-672" width="18" height="18" as="geometry" />
        </mxCell>
        <mxCell id="asJu54X23L_uqpBQXGJ8-51" value="" style="ellipse;whiteSpace=wrap;html=1;aspect=fixed;" parent="1" vertex="1">
          <mxGeometry x="81" y="-648" width="18" height="18" as="geometry" />
        </mxCell>
        <mxCell id="asJu54X23L_uqpBQXGJ8-52" value="" style="ellipse;whiteSpace=wrap;html=1;aspect=fixed;" parent="1" vertex="1">
          <mxGeometry x="81" y="-624" width="18" height="18" as="geometry" />
        </mxCell>
        <mxCell id="asJu54X23L_uqpBQXGJ8-53" value="" style="ellipse;whiteSpace=wrap;html=1;aspect=fixed;" parent="1" vertex="1">
          <mxGeometry x="81" y="-600" width="18" height="18" as="geometry" />
        </mxCell>
        <mxCell id="asJu54X23L_uqpBQXGJ8-54" value="" style="ellipse;whiteSpace=wrap;html=1;aspect=fixed;" parent="1" vertex="1">
          <mxGeometry x="81" y="-576" width="18" height="18" as="geometry" />
        </mxCell>
        <mxCell id="asJu54X23L_uqpBQXGJ8-55" value="" style="ellipse;whiteSpace=wrap;html=1;aspect=fixed;" parent="1" vertex="1">
          <mxGeometry x="81" y="-552" width="18" height="18" as="geometry" />
        </mxCell>
        <mxCell id="asJu54X23L_uqpBQXGJ8-56" value="" style="rounded=1;whiteSpace=wrap;html=1;direction=south;strokeWidth=2;opacity=50;fillColor=#FFCCCC;" parent="1" vertex="1">
          <mxGeometry x="30" y="-680" width="40" height="158" as="geometry" />
        </mxCell>
        <mxCell id="asJu54X23L_uqpBQXGJ8-57" value="" style="ellipse;whiteSpace=wrap;html=1;aspect=fixed;" parent="1" vertex="1">
          <mxGeometry x="41" y="-672" width="18" height="18" as="geometry" />
        </mxCell>
        <mxCell id="asJu54X23L_uqpBQXGJ8-58" value="" style="ellipse;whiteSpace=wrap;html=1;aspect=fixed;" parent="1" vertex="1">
          <mxGeometry x="41" y="-648" width="18" height="18" as="geometry" />
        </mxCell>
        <mxCell id="asJu54X23L_uqpBQXGJ8-59" value="" style="ellipse;whiteSpace=wrap;html=1;aspect=fixed;" parent="1" vertex="1">
          <mxGeometry x="41" y="-624" width="18" height="18" as="geometry" />
        </mxCell>
        <mxCell id="asJu54X23L_uqpBQXGJ8-60" value="" style="ellipse;whiteSpace=wrap;html=1;aspect=fixed;" parent="1" vertex="1">
          <mxGeometry x="41" y="-600" width="18" height="18" as="geometry" />
        </mxCell>
        <mxCell id="asJu54X23L_uqpBQXGJ8-61" value="" style="ellipse;whiteSpace=wrap;html=1;aspect=fixed;" parent="1" vertex="1">
          <mxGeometry x="41" y="-576" width="18" height="18" as="geometry" />
        </mxCell>
        <mxCell id="asJu54X23L_uqpBQXGJ8-62" value="" style="ellipse;whiteSpace=wrap;html=1;aspect=fixed;" parent="1" vertex="1">
          <mxGeometry x="41" y="-552" width="18" height="18" as="geometry" />
        </mxCell>
        <mxCell id="RauLzc8qqApyDC3I54p1-1" value="" style="endArrow=none;html=1;strokeWidth=4;fillColor=#f8cecc;strokeColor=#FA0B02;edgeStyle=orthogonalEdgeStyle;" edge="1" parent="1">
          <mxGeometry width="50" height="50" relative="1" as="geometry">
            <mxPoint x="230" y="-680" as="sourcePoint" />
            <mxPoint x="580" y="-640" as="targetPoint" />
            <Array as="points">
              <mxPoint x="230" y="-720" />
              <mxPoint x="580" y="-720" />
            </Array>
          </mxGeometry>
        </mxCell>
        <mxCell id="RauLzc8qqApyDC3I54p1-2" value="" style="endArrow=none;html=1;strokeWidth=3;fillColor=#f8cecc;strokeColor=#000000;startArrow=circlePlus;startFill=0;" edge="1" parent="1">
          <mxGeometry width="50" height="50" relative="1" as="geometry">
            <mxPoint x="270" y="-470" as="sourcePoint" />
            <mxPoint x="270" y="-520" as="targetPoint" />
          </mxGeometry>
        </mxCell>
        <mxCell id="RauLzc8qqApyDC3I54p1-3" value="" style="endArrow=none;html=1;strokeWidth=4;fillColor=#f8cecc;strokeColor=#FFFF00;edgeStyle=orthogonalEdgeStyle;shadow=1;opacity=90;" edge="1" parent="1">
          <mxGeometry width="50" height="50" relative="1" as="geometry">
            <mxPoint x="150" y="-680" as="sourcePoint" />
            <mxPoint x="540" y="-650" as="targetPoint" />
            <Array as="points">
              <mxPoint x="150" y="-760" />
              <mxPoint x="540" y="-760" />
            </Array>
          </mxGeometry>
        </mxCell>
        <mxCell id="RauLzc8qqApyDC3I54p1-4" value="" style="endArrow=none;html=1;strokeWidth=3;fillColor=#f8cecc;strokeColor=#000000;startArrow=circlePlus;startFill=0;" edge="1" parent="1">
          <mxGeometry width="50" height="50" relative="1" as="geometry">
            <mxPoint x="190" y="-470" as="sourcePoint" />
            <mxPoint x="190" y="-520" as="targetPoint" />
          </mxGeometry>
        </mxCell>
        <mxCell id="RauLzc8qqApyDC3I54p1-8" value="" style="endArrow=none;html=1;strokeWidth=2;fillColor=#f8cecc;strokeColor=#FA0B02;" edge="1" parent="1">
          <mxGeometry width="50" height="50" relative="1" as="geometry">
            <mxPoint x="740" y="-631" as="sourcePoint" />
            <mxPoint x="780" y="-631" as="targetPoint" />
          </mxGeometry>
        </mxCell>
        <mxCell id="RauLzc8qqApyDC3I54p1-9" value="" style="endArrow=none;html=1;strokeWidth=4;fillColor=#f8cecc;strokeColor=#FA0B02;" edge="1" parent="1">
          <mxGeometry width="50" height="50" relative="1" as="geometry">
            <mxPoint x="580" y="-630" as="sourcePoint" />
            <mxPoint x="620" y="-630" as="targetPoint" />
          </mxGeometry>
        </mxCell>
        <mxCell id="RauLzc8qqApyDC3I54p1-10" value="" style="endArrow=none;html=1;strokeWidth=4;fillColor=#f8cecc;strokeColor=#FFFF00;edgeStyle=orthogonalEdgeStyle;shadow=1;opacity=90;" edge="1" parent="1">
          <mxGeometry width="50" height="50" relative="1" as="geometry">
            <mxPoint x="521" y="-760" as="sourcePoint" />
            <mxPoint x="861" y="-650" as="targetPoint" />
            <Array as="points">
              <mxPoint x="861" y="-760" />
            </Array>
          </mxGeometry>
        </mxCell>
        <mxCell id="RauLzc8qqApyDC3I54p1-11" value="" style="endArrow=none;html=1;strokeWidth=3;fillColor=#f8cecc;strokeColor=#000000;startArrow=circlePlus;startFill=0;" edge="1" parent="1">
          <mxGeometry width="50" height="50" relative="1" as="geometry">
            <mxPoint x="539" y="-510" as="sourcePoint" />
            <mxPoint x="539" y="-550" as="targetPoint" />
          </mxGeometry>
        </mxCell>
        <mxCell id="RauLzc8qqApyDC3I54p1-12" value="" style="endArrow=none;html=1;strokeWidth=4;fillColor=#f8cecc;strokeColor=#FA0B02;" edge="1" parent="1">
          <mxGeometry width="50" height="50" relative="1" as="geometry">
            <mxPoint x="620" y="-631" as="sourcePoint" />
            <mxPoint x="660" y="-631" as="targetPoint" />
          </mxGeometry>
        </mxCell>
        <mxCell id="RauLzc8qqApyDC3I54p1-14" value="" style="endArrow=none;html=1;strokeWidth=2;fillColor=#f8cecc;startArrow=none;startFill=0;edgeStyle=orthogonalEdgeStyle;strokeColor=#E6E6E6;shadow=1;" edge="1" parent="1">
          <mxGeometry width="50" height="50" relative="1" as="geometry">
            <mxPoint x="500" y="-440" as="sourcePoint" />
            <mxPoint x="500" y="-360" as="targetPoint" />
            <Array as="points">
              <mxPoint x="500" y="-440" />
            </Array>
          </mxGeometry>
        </mxCell>
        <mxCell id="RauLzc8qqApyDC3I54p1-15" value="" style="endArrow=none;html=1;strokeWidth=4;fillColor=#f8cecc;strokeColor=#00FFFF;edgeStyle=orthogonalEdgeStyle;" edge="1" parent="1">
          <mxGeometry width="50" height="50" relative="1" as="geometry">
            <mxPoint x="440" y="-650" as="sourcePoint" />
            <mxPoint x="960" y="-650" as="targetPoint" />
            <Array as="points">
              <mxPoint x="440" y="-680" />
              <mxPoint x="960" y="-680" />
            </Array>
          </mxGeometry>
        </mxCell>
        <mxCell id="RauLzc8qqApyDC3I54p1-16" value="" style="endArrow=none;html=1;strokeWidth=4;fillColor=#f8cecc;strokeColor=#33FFFF;edgeStyle=orthogonalEdgeStyle;" edge="1" parent="1">
          <mxGeometry width="50" height="50" relative="1" as="geometry">
            <mxPoint x="950" y="-680" as="sourcePoint" />
            <mxPoint x="1350" y="-560" as="targetPoint" />
            <Array as="points">
              <mxPoint x="1070" y="-680" />
              <mxPoint x="1070" y="-489" />
              <mxPoint x="1350" y="-489" />
            </Array>
          </mxGeometry>
        </mxCell>
        <mxCell id="RauLzc8qqApyDC3I54p1-17" value="" style="endArrow=none;html=1;strokeWidth=4;fillColor=#f8cecc;strokeColor=#00CCCC;edgeStyle=orthogonalEdgeStyle;" edge="1" parent="1">
          <mxGeometry width="50" height="50" relative="1" as="geometry">
            <mxPoint x="1350" y="-560" as="sourcePoint" />
            <mxPoint x="1510" y="-560" as="targetPoint" />
            <Array as="points">
              <mxPoint x="1350" y="-490" />
              <mxPoint x="1510" y="-490" />
            </Array>
          </mxGeometry>
        </mxCell>
        <mxCell id="RauLzc8qqApyDC3I54p1-18" value="" style="endArrow=none;html=1;strokeWidth=4;fillColor=#f8cecc;strokeColor=#009999;edgeStyle=orthogonalEdgeStyle;" edge="1" parent="1">
          <mxGeometry width="50" height="50" relative="1" as="geometry">
            <mxPoint x="1130" y="-560" as="sourcePoint" />
            <mxPoint x="1540" y="-560" as="targetPoint" />
            <Array as="points">
              <mxPoint x="1130" y="-460" />
              <mxPoint x="1540" y="-460" />
            </Array>
          </mxGeometry>
        </mxCell>
        <mxCell id="RauLzc8qqApyDC3I54p1-19" value="Jack +" style="endArrow=openThin;html=1;strokeWidth=4;fillColor=#f8cecc;strokeColor=#009999;verticalAlign=top;spacing=82;endFill=0;" edge="1" parent="1">
          <mxGeometry width="50" height="50" relative="1" as="geometry">
            <mxPoint x="1158" y="-560" as="sourcePoint" />
            <mxPoint x="1158" y="-420" as="targetPoint" />
          </mxGeometry>
        </mxCell>
        <mxCell id="RauLzc8qqApyDC3I54p1-20" value="" style="endArrow=none;html=1;strokeWidth=2;fillColor=#f8cecc;strokeColor=#000000;startArrow=circlePlus;startFill=0;edgeStyle=orthogonalEdgeStyle;exitX=0;exitY=0;exitDx=0;exitDy=20.5;exitPerimeter=0;" edge="1" parent="1" source="51kKJXi9qUbgjsaaFKMb-110">
          <mxGeometry width="50" height="50" relative="1" as="geometry">
            <mxPoint x="1190" y="-523" as="sourcePoint" />
            <mxPoint x="1190" y="-563" as="targetPoint" />
            <Array as="points">
              <mxPoint x="1118" y="-620" />
              <mxPoint x="1220" y="-620" />
              <mxPoint x="1220" y="-560" />
              <mxPoint x="1190" y="-560" />
            </Array>
          </mxGeometry>
        </mxCell>
        <mxCell id="RauLzc8qqApyDC3I54p1-21" value="0.022uF" style="pointerEvents=1;verticalLabelPosition=bottom;shadow=0;dashed=0;align=center;html=1;verticalAlign=top;shape=mxgraph.electrical.capacitors.capacitor_3;fillColor=#FFCCCC;strokeWidth=2;labelBackgroundColor=default;textOpacity=90;fontStyle=1" vertex="1" parent="1">
          <mxGeometry x="1377.5" y="-574" width="50" height="30" as="geometry" />
        </mxCell>
        <mxCell id="RauLzc8qqApyDC3I54p1-23" value="" style="endArrow=none;html=1;strokeWidth=2;fillColor=#f8cecc;strokeColor=#000000;startArrow=circlePlus;startFill=0;exitX=0.714;exitY=0.596;exitDx=0;exitDy=0;exitPerimeter=0;edgeStyle=orthogonalEdgeStyle;" edge="1" parent="1" source="51kKJXi9qUbgjsaaFKMb-114">
          <mxGeometry width="50" height="50" relative="1" as="geometry">
            <mxPoint x="1395" y="-629" as="sourcePoint" />
            <mxPoint x="1427.5" y="-558" as="targetPoint" />
          </mxGeometry>
        </mxCell>
        <mxCell id="RauLzc8qqApyDC3I54p1-22" value="0.0022uF" style="pointerEvents=1;verticalLabelPosition=bottom;shadow=0;dashed=0;align=center;html=1;verticalAlign=top;shape=mxgraph.electrical.capacitors.capacitor_3;fillColor=#FFCCCC;strokeWidth=2;labelBackgroundColor=default;textOpacity=80;fontStyle=1" vertex="1" parent="1">
          <mxGeometry x="1501" y="-575" width="50" height="30" as="geometry" />
        </mxCell>
        <mxCell id="RauLzc8qqApyDC3I54p1-40" value="561pF&lt;br&gt;150KΩ" style="pointerEvents=1;verticalLabelPosition=bottom;shadow=0;dashed=0;align=center;html=1;verticalAlign=top;shape=mxgraph.electrical.capacitors.capacitor_3;fillColor=#FFCCCC;strokeWidth=2;labelBackgroundColor=default;textOpacity=80;fontStyle=1" vertex="1" parent="1">
          <mxGeometry x="1120" y="-576" width="50" height="30" as="geometry" />
        </mxCell>
        <mxCell id="RauLzc8qqApyDC3I54p1-44" value="" style="endArrow=none;html=1;strokeWidth=3;fillColor=#f8cecc;strokeColor=#000000;startArrow=circlePlus;startFill=0;" edge="1" parent="1">
          <mxGeometry width="50" height="50" relative="1" as="geometry">
            <mxPoint x="960" y="-512" as="sourcePoint" />
            <mxPoint x="960" y="-552" as="targetPoint" />
          </mxGeometry>
        </mxCell>
        <mxCell id="RauLzc8qqApyDC3I54p1-47" value="" style="endArrow=none;html=1;strokeWidth=2;fillColor=#f8cecc;startArrow=none;startFill=0;strokeColor=#E6E6E6;shadow=1;" edge="1" parent="1">
          <mxGeometry width="50" height="50" relative="1" as="geometry">
            <mxPoint x="780" y="-580" as="sourcePoint" />
            <mxPoint x="820" y="-652" as="targetPoint" />
          </mxGeometry>
        </mxCell>
        <mxCell id="RauLzc8qqApyDC3I54p1-48" value="" style="endArrow=none;html=1;strokeWidth=2;fillColor=#f8cecc;strokeColor=#FA0B02;" edge="1" parent="1">
          <mxGeometry width="50" height="50" relative="1" as="geometry">
            <mxPoint x="820" y="-547" as="sourcePoint" />
            <mxPoint x="780" y="-620" as="targetPoint" />
          </mxGeometry>
        </mxCell>
        <mxCell id="RauLzc8qqApyDC3I54p1-49" value="" style="endArrow=none;html=1;strokeWidth=3;fillColor=#f8cecc;strokeColor=#000000;startArrow=circlePlus;startFill=0;" edge="1" parent="1">
          <mxGeometry width="50" height="50" relative="1" as="geometry">
            <mxPoint x="580" y="-510" as="sourcePoint" />
            <mxPoint x="580" y="-550" as="targetPoint" />
          </mxGeometry>
        </mxCell>
        <mxCell id="RauLzc8qqApyDC3I54p1-52" value="" style="endArrow=none;html=1;strokeWidth=3;fillColor=#f8cecc;strokeColor=#000000;startArrow=circlePlus;startFill=0;" edge="1" parent="1">
          <mxGeometry width="50" height="50" relative="1" as="geometry">
            <mxPoint x="1440" y="-631" as="sourcePoint" />
            <mxPoint x="1490" y="-631" as="targetPoint" />
          </mxGeometry>
        </mxCell>
        <mxCell id="RauLzc8qqApyDC3I54p1-54" value="" style="endArrow=none;html=1;strokeWidth=3;fillColor=#f8cecc;startArrow=none;startFill=0;edgeStyle=orthogonalEdgeStyle;" edge="1" parent="1">
          <mxGeometry width="50" height="50" relative="1" as="geometry">
            <mxPoint x="1524" y="-700" as="sourcePoint" />
            <mxPoint x="1494" y="-700" as="targetPoint" />
            <Array as="points">
              <mxPoint x="1524" y="-730" />
              <mxPoint x="1494" y="-730" />
            </Array>
          </mxGeometry>
        </mxCell>
        <mxCell id="RauLzc8qqApyDC3I54p1-51" value="" style="endArrow=none;html=1;strokeWidth=3;fillColor=#f8cecc;strokeColor=#0000FF;edgeStyle=orthogonalEdgeStyle;" edge="1" parent="1">
          <mxGeometry width="50" height="50" relative="1" as="geometry">
            <mxPoint x="740" y="-790" as="sourcePoint" />
            <mxPoint x="1530" y="-630" as="targetPoint" />
            <Array as="points">
              <mxPoint x="740" y="-800" />
              <mxPoint x="1580" y="-800" />
              <mxPoint x="1580" y="-630" />
            </Array>
          </mxGeometry>
        </mxCell>
        <mxCell id="RauLzc8qqApyDC3I54p1-50" value="" style="endArrow=none;html=1;strokeWidth=2;fillColor=#f8cecc;startArrow=none;startFill=0;strokeColor=#E6E6E6;shadow=1;edgeStyle=orthogonalEdgeStyle;" edge="1" parent="1">
          <mxGeometry width="50" height="50" relative="1" as="geometry">
            <mxPoint x="1520" y="-650" as="sourcePoint" />
            <mxPoint x="1460" y="-671" as="targetPoint" />
            <Array as="points">
              <mxPoint x="1500" y="-650" />
              <mxPoint x="1500" y="-671" />
            </Array>
          </mxGeometry>
        </mxCell>
        <mxCell id="RauLzc8qqApyDC3I54p1-56" value="" style="endArrow=none;html=1;strokeWidth=3;fillColor=#f8cecc;strokeColor=#0000FF;edgeStyle=orthogonalEdgeStyle;" edge="1" parent="1">
          <mxGeometry width="50" height="50" relative="1" as="geometry">
            <mxPoint x="500" y="-550" as="sourcePoint" />
            <mxPoint x="1490" y="-650" as="targetPoint" />
            <Array as="points">
              <mxPoint x="500" y="-480" />
              <mxPoint x="1030" y="-480" />
              <mxPoint x="1030" y="-720" />
              <mxPoint x="1450" y="-720" />
              <mxPoint x="1450" y="-650" />
            </Array>
          </mxGeometry>
        </mxCell>
        <mxCell id="RauLzc8qqApyDC3I54p1-58" value="" style="endArrow=none;html=1;strokeWidth=2;fillColor=#f8cecc;strokeColor=#000000;startArrow=circlePlus;startFill=0;" edge="1" parent="1">
          <mxGeometry width="50" height="50" relative="1" as="geometry">
            <mxPoint x="1335" y="-590" as="sourcePoint" />
            <mxPoint x="1335" y="-628" as="targetPoint" />
          </mxGeometry>
        </mxCell>
        <mxCell id="RauLzc8qqApyDC3I54p1-59" value="" style="endArrow=none;html=1;strokeWidth=3;fillColor=#f8cecc;strokeColor=#FF8000;edgeStyle=orthogonalEdgeStyle;dashed=1;rounded=1;" edge="1" parent="1">
          <mxGeometry width="50" height="50" relative="1" as="geometry">
            <mxPoint x="190" y="-475" as="sourcePoint" />
            <mxPoint x="1330" y="-645" as="targetPoint" />
            <Array as="points">
              <mxPoint x="190" y="-435" />
              <mxPoint x="390" y="-435" />
              <mxPoint x="390" y="-840" />
              <mxPoint x="1260" y="-840" />
              <mxPoint x="1260" y="-645" />
            </Array>
          </mxGeometry>
        </mxCell>
        <mxCell id="RauLzc8qqApyDC3I54p1-60" value="" style="endArrow=none;html=1;strokeWidth=4;fillColor=#f8cecc;strokeColor=#00FFFF;edgeStyle=orthogonalEdgeStyle;" edge="1" parent="1">
          <mxGeometry width="50" height="50" relative="1" as="geometry">
            <mxPoint x="1350" y="-560" as="sourcePoint" />
            <mxPoint x="1330" y="-670" as="targetPoint" />
            <Array as="points">
              <mxPoint x="1350" y="-570" />
              <mxPoint x="1350" y="-670" />
            </Array>
          </mxGeometry>
        </mxCell>
        <mxCell id="RauLzc8qqApyDC3I54p1-61" value="&lt;b style=&quot;font-size: 14px&quot;&gt;Tone HPF&lt;/b&gt;&lt;br style=&quot;font-size: 14px&quot;&gt;Push: N+M serial&lt;br style=&quot;font-size: 14px&quot;&gt;Pull: N+M parallel" style="text;html=1;align=left;verticalAlign=middle;resizable=0;points=[];autosize=1;strokeColor=none;fillColor=none;fontSize=14;" vertex="1" parent="1">
          <mxGeometry x="500" y="-290" width="130" height="60" as="geometry" />
        </mxCell>
        <mxCell id="RauLzc8qqApyDC3I54p1-62" value="" style="endArrow=none;html=1;strokeWidth=3;fillColor=#f8cecc;strokeColor=#FF0080;edgeStyle=orthogonalEdgeStyle;" edge="1" parent="1">
          <mxGeometry width="50" height="50" relative="1" as="geometry">
            <mxPoint x="270" y="-483" as="sourcePoint" />
            <mxPoint x="1370" y="-643" as="targetPoint" />
            <Array as="points">
              <mxPoint x="270" y="-460" />
              <mxPoint x="350" y="-460" />
              <mxPoint x="350" y="-880" />
              <mxPoint x="1400" y="-880" />
              <mxPoint x="1400" y="-643" />
            </Array>
          </mxGeometry>
        </mxCell>
        <mxCell id="RauLzc8qqApyDC3I54p1-63" value="" style="endArrow=none;html=1;strokeWidth=4;fillColor=#f8cecc;strokeColor=#FA0B02;" edge="1" parent="1">
          <mxGeometry width="50" height="50" relative="1" as="geometry">
            <mxPoint x="1240" y="-383.5" as="sourcePoint" />
            <mxPoint x="1240" y="-420" as="targetPoint" />
          </mxGeometry>
        </mxCell>
        <mxCell id="RauLzc8qqApyDC3I54p1-64" value="" style="endArrow=none;html=1;strokeWidth=3;fillColor=#f8cecc;strokeColor=#000000;startArrow=none;startFill=0;" edge="1" parent="1">
          <mxGeometry width="50" height="50" relative="1" as="geometry">
            <mxPoint x="1255" y="-383.5" as="sourcePoint" />
            <mxPoint x="1255" y="-420" as="targetPoint" />
          </mxGeometry>
        </mxCell>
        <mxCell id="RauLzc8qqApyDC3I54p1-65" value="" style="endArrow=none;html=1;strokeWidth=4;fillColor=#f8cecc;strokeColor=#FA0B02;" edge="1" parent="1">
          <mxGeometry width="50" height="50" relative="1" as="geometry">
            <mxPoint x="1239" y="-326.75" as="sourcePoint" />
            <mxPoint x="1239" y="-363.25" as="targetPoint" />
          </mxGeometry>
        </mxCell>
        <mxCell id="RauLzc8qqApyDC3I54p1-66" value="" style="endArrow=none;html=1;strokeWidth=2;fillColor=#f8cecc;strokeColor=#000000;startArrow=circlePlus;startFill=0;" edge="1" parent="1">
          <mxGeometry width="50" height="50" relative="1" as="geometry">
            <mxPoint x="1260" y="-326.75" as="sourcePoint" />
            <mxPoint x="1260" y="-363.25" as="targetPoint" />
          </mxGeometry>
        </mxCell>
        <mxCell id="RauLzc8qqApyDC3I54p1-67" value="" style="endArrow=none;html=1;strokeWidth=2;fillColor=#f8cecc;strokeColor=#000000;startArrow=circlePlus;startFill=0;" edge="1" parent="1">
          <mxGeometry width="50" height="50" relative="1" as="geometry">
            <mxPoint x="1300" y="-326.75" as="sourcePoint" />
            <mxPoint x="1300" y="-363.25" as="targetPoint" />
          </mxGeometry>
        </mxCell>
        <mxCell id="RauLzc8qqApyDC3I54p1-68" value="" style="endArrow=none;html=1;strokeWidth=4;fillColor=#f8cecc;strokeColor=#FFFF00;shadow=1;" edge="1" parent="1">
          <mxGeometry width="50" height="50" relative="1" as="geometry">
            <mxPoint x="1280" y="-360" as="sourcePoint" />
            <mxPoint x="1280" y="-320" as="targetPoint" />
          </mxGeometry>
        </mxCell>
        <mxCell id="RauLzc8qqApyDC3I54p1-70" value="" style="endArrow=none;html=1;strokeWidth=4;fillColor=#f8cecc;strokeColor=#FA0B02;" edge="1" parent="1">
          <mxGeometry width="50" height="50" relative="1" as="geometry">
            <mxPoint x="1350" y="-326.75" as="sourcePoint" />
            <mxPoint x="1350" y="-363.25" as="targetPoint" />
          </mxGeometry>
        </mxCell>
        <mxCell id="RauLzc8qqApyDC3I54p1-71" value="" style="endArrow=none;html=1;strokeWidth=2;fillColor=#f8cecc;strokeColor=#000000;startArrow=circlePlus;startFill=0;" edge="1" parent="1">
          <mxGeometry width="50" height="50" relative="1" as="geometry">
            <mxPoint x="1371" y="-326.75" as="sourcePoint" />
            <mxPoint x="1371" y="-363.25" as="targetPoint" />
          </mxGeometry>
        </mxCell>
        <mxCell id="RauLzc8qqApyDC3I54p1-72" value="" style="endArrow=none;html=1;strokeWidth=2;fillColor=#f8cecc;strokeColor=#000000;startArrow=none;startFill=0;" edge="1" parent="1">
          <mxGeometry width="50" height="50" relative="1" as="geometry">
            <mxPoint x="1411" y="-326.75" as="sourcePoint" />
            <mxPoint x="1411" y="-363.25" as="targetPoint" />
          </mxGeometry>
        </mxCell>
        <mxCell id="RauLzc8qqApyDC3I54p1-73" value="" style="endArrow=none;html=1;strokeWidth=4;fillColor=#f8cecc;strokeColor=#FFFF00;shadow=1;" edge="1" parent="1">
          <mxGeometry width="50" height="50" relative="1" as="geometry">
            <mxPoint x="1391" y="-360" as="sourcePoint" />
            <mxPoint x="1391" y="-320" as="targetPoint" />
          </mxGeometry>
        </mxCell>
        <mxCell id="RauLzc8qqApyDC3I54p1-74" value="" style="endArrow=none;html=1;strokeWidth=3;fillColor=#f8cecc;startArrow=none;startFill=0;edgeStyle=orthogonalEdgeStyle;" edge="1" parent="1">
          <mxGeometry width="50" height="50" relative="1" as="geometry">
            <mxPoint x="1411" y="-350" as="sourcePoint" />
            <mxPoint x="1351" y="-350" as="targetPoint" />
            <Array as="points">
              <mxPoint x="1411" y="-370" />
              <mxPoint x="1351" y="-370" />
            </Array>
          </mxGeometry>
        </mxCell>
        <mxCell id="RauLzc8qqApyDC3I54p1-75" value="" style="endArrow=none;html=1;strokeWidth=4;fillColor=#f8cecc;strokeColor=#FA0B02;" edge="1" parent="1">
          <mxGeometry width="50" height="50" relative="1" as="geometry">
            <mxPoint x="1240" y="-266.75" as="sourcePoint" />
            <mxPoint x="1240" y="-303.25" as="targetPoint" />
          </mxGeometry>
        </mxCell>
        <mxCell id="RauLzc8qqApyDC3I54p1-76" value="" style="endArrow=none;html=1;strokeWidth=2;fillColor=#f8cecc;strokeColor=#000000;startArrow=circlePlus;startFill=0;" edge="1" parent="1">
          <mxGeometry width="50" height="50" relative="1" as="geometry">
            <mxPoint x="1261" y="-266.75" as="sourcePoint" />
            <mxPoint x="1261" y="-303.25" as="targetPoint" />
          </mxGeometry>
        </mxCell>
        <mxCell id="RauLzc8qqApyDC3I54p1-77" value="" style="endArrow=none;html=1;strokeWidth=2;fillColor=#f8cecc;strokeColor=#000000;startArrow=circlePlus;startFill=0;" edge="1" parent="1">
          <mxGeometry width="50" height="50" relative="1" as="geometry">
            <mxPoint x="1301" y="-266.75" as="sourcePoint" />
            <mxPoint x="1301" y="-303.25" as="targetPoint" />
          </mxGeometry>
        </mxCell>
        <mxCell id="RauLzc8qqApyDC3I54p1-78" value="" style="endArrow=none;html=1;strokeWidth=4;fillColor=#f8cecc;strokeColor=#E6E6E6;shadow=1;" edge="1" parent="1">
          <mxGeometry width="50" height="50" relative="1" as="geometry">
            <mxPoint x="1281" y="-300" as="sourcePoint" />
            <mxPoint x="1281" y="-260" as="targetPoint" />
          </mxGeometry>
        </mxCell>
        <mxCell id="RauLzc8qqApyDC3I54p1-79" value="" style="endArrow=none;html=1;strokeWidth=4;fillColor=#f8cecc;strokeColor=#FA0B02;" edge="1" parent="1">
          <mxGeometry width="50" height="50" relative="1" as="geometry">
            <mxPoint x="1351" y="-266.75" as="sourcePoint" />
            <mxPoint x="1351" y="-303.25" as="targetPoint" />
          </mxGeometry>
        </mxCell>
        <mxCell id="RauLzc8qqApyDC3I54p1-80" value="" style="endArrow=none;html=1;strokeWidth=2;fillColor=#f8cecc;strokeColor=#000000;startArrow=circlePlus;startFill=0;" edge="1" parent="1">
          <mxGeometry width="50" height="50" relative="1" as="geometry">
            <mxPoint x="1372" y="-266.75" as="sourcePoint" />
            <mxPoint x="1372" y="-303.25" as="targetPoint" />
          </mxGeometry>
        </mxCell>
        <mxCell id="RauLzc8qqApyDC3I54p1-81" value="" style="endArrow=none;html=1;strokeWidth=2;fillColor=#f8cecc;strokeColor=#000000;startArrow=none;startFill=0;" edge="1" parent="1">
          <mxGeometry width="50" height="50" relative="1" as="geometry">
            <mxPoint x="1412" y="-266.75" as="sourcePoint" />
            <mxPoint x="1412" y="-303.25" as="targetPoint" />
          </mxGeometry>
        </mxCell>
        <mxCell id="RauLzc8qqApyDC3I54p1-82" value="" style="endArrow=none;html=1;strokeWidth=4;fillColor=#f8cecc;strokeColor=#E6E6E6;shadow=1;" edge="1" parent="1">
          <mxGeometry width="50" height="50" relative="1" as="geometry">
            <mxPoint x="1392" y="-300" as="sourcePoint" />
            <mxPoint x="1392" y="-260" as="targetPoint" />
          </mxGeometry>
        </mxCell>
        <mxCell id="RauLzc8qqApyDC3I54p1-83" value="" style="endArrow=none;html=1;strokeWidth=3;fillColor=#f8cecc;startArrow=none;startFill=0;edgeStyle=orthogonalEdgeStyle;" edge="1" parent="1">
          <mxGeometry width="50" height="50" relative="1" as="geometry">
            <mxPoint x="1412" y="-290" as="sourcePoint" />
            <mxPoint x="1352" y="-290" as="targetPoint" />
            <Array as="points">
              <mxPoint x="1412" y="-310" />
              <mxPoint x="1352" y="-310" />
            </Array>
          </mxGeometry>
        </mxCell>
        <mxCell id="RauLzc8qqApyDC3I54p1-84" value="" style="endArrow=none;html=1;strokeWidth=4;fillColor=#f8cecc;strokeColor=#FFFF00;shadow=1;" edge="1" parent="1">
          <mxGeometry width="50" height="50" relative="1" as="geometry">
            <mxPoint x="1240" y="-206.75" as="sourcePoint" />
            <mxPoint x="1240" y="-243.25" as="targetPoint" />
          </mxGeometry>
        </mxCell>
        <mxCell id="RauLzc8qqApyDC3I54p1-85" value="" style="endArrow=none;html=1;strokeWidth=2;fillColor=#f8cecc;strokeColor=#000000;startArrow=circlePlus;startFill=0;" edge="1" parent="1">
          <mxGeometry width="50" height="50" relative="1" as="geometry">
            <mxPoint x="1261" y="-206.75" as="sourcePoint" />
            <mxPoint x="1261" y="-243.25" as="targetPoint" />
          </mxGeometry>
        </mxCell>
        <mxCell id="RauLzc8qqApyDC3I54p1-86" value="" style="endArrow=none;html=1;strokeWidth=2;fillColor=#f8cecc;strokeColor=#000000;startArrow=circlePlus;startFill=0;" edge="1" parent="1">
          <mxGeometry width="50" height="50" relative="1" as="geometry">
            <mxPoint x="1301" y="-206.75" as="sourcePoint" />
            <mxPoint x="1301" y="-243.25" as="targetPoint" />
          </mxGeometry>
        </mxCell>
        <mxCell id="RauLzc8qqApyDC3I54p1-87" value="" style="endArrow=none;html=1;strokeWidth=2;fillColor=#f8cecc;strokeColor=#FF0000;shadow=0;" edge="1" parent="1">
          <mxGeometry width="50" height="50" relative="1" as="geometry">
            <mxPoint x="1281" y="-240" as="sourcePoint" />
            <mxPoint x="1281" y="-200" as="targetPoint" />
          </mxGeometry>
        </mxCell>
        <mxCell id="RauLzc8qqApyDC3I54p1-88" value="" style="endArrow=none;html=1;strokeWidth=4;fillColor=#f8cecc;strokeColor=#FFFF00;shadow=1;" edge="1" parent="1">
          <mxGeometry width="50" height="50" relative="1" as="geometry">
            <mxPoint x="1351" y="-206.75" as="sourcePoint" />
            <mxPoint x="1351" y="-243.25" as="targetPoint" />
          </mxGeometry>
        </mxCell>
        <mxCell id="RauLzc8qqApyDC3I54p1-89" value="" style="endArrow=none;html=1;strokeWidth=2;fillColor=#f8cecc;strokeColor=#000000;startArrow=circlePlus;startFill=0;" edge="1" parent="1">
          <mxGeometry width="50" height="50" relative="1" as="geometry">
            <mxPoint x="1372" y="-206.75" as="sourcePoint" />
            <mxPoint x="1372" y="-243.25" as="targetPoint" />
          </mxGeometry>
        </mxCell>
        <mxCell id="RauLzc8qqApyDC3I54p1-90" value="" style="endArrow=none;html=1;strokeWidth=2;fillColor=#f8cecc;strokeColor=#000000;startArrow=none;startFill=0;" edge="1" parent="1">
          <mxGeometry width="50" height="50" relative="1" as="geometry">
            <mxPoint x="1412" y="-206.75" as="sourcePoint" />
            <mxPoint x="1412" y="-243.25" as="targetPoint" />
          </mxGeometry>
        </mxCell>
        <mxCell id="RauLzc8qqApyDC3I54p1-91" value="" style="endArrow=none;html=1;strokeWidth=2;fillColor=#f8cecc;strokeColor=#FF0000;shadow=0;" edge="1" parent="1">
          <mxGeometry width="50" height="50" relative="1" as="geometry">
            <mxPoint x="1392" y="-240" as="sourcePoint" />
            <mxPoint x="1392" y="-200" as="targetPoint" />
          </mxGeometry>
        </mxCell>
        <mxCell id="RauLzc8qqApyDC3I54p1-92" value="" style="endArrow=none;html=1;strokeWidth=3;fillColor=#f8cecc;startArrow=none;startFill=0;edgeStyle=orthogonalEdgeStyle;" edge="1" parent="1">
          <mxGeometry width="50" height="50" relative="1" as="geometry">
            <mxPoint x="1412" y="-230" as="sourcePoint" />
            <mxPoint x="1352" y="-230" as="targetPoint" />
            <Array as="points">
              <mxPoint x="1412" y="-250" />
              <mxPoint x="1352" y="-250" />
            </Array>
          </mxGeometry>
        </mxCell>
        <mxCell id="RauLzc8qqApyDC3I54p1-102" value="" style="endArrow=none;html=1;strokeWidth=4;fillColor=#f8cecc;strokeColor=#FA0B02;" edge="1" parent="1">
          <mxGeometry width="50" height="50" relative="1" as="geometry">
            <mxPoint x="670" y="-485.5" as="sourcePoint" />
            <mxPoint x="670" y="-522" as="targetPoint" />
          </mxGeometry>
        </mxCell>
        <mxCell id="RauLzc8qqApyDC3I54p1-103" value="" style="endArrow=none;html=1;strokeWidth=2;fillColor=#f8cecc;strokeColor=#000000;startArrow=circlePlus;startFill=0;" edge="1" parent="1">
          <mxGeometry width="50" height="50" relative="1" as="geometry">
            <mxPoint x="691" y="-485.5" as="sourcePoint" />
            <mxPoint x="691" y="-522" as="targetPoint" />
          </mxGeometry>
        </mxCell>
        <mxCell id="RauLzc8qqApyDC3I54p1-104" value="" style="endArrow=none;html=1;strokeWidth=2;fillColor=#f8cecc;strokeColor=#000000;startArrow=circlePlus;startFill=0;" edge="1" parent="1">
          <mxGeometry width="50" height="50" relative="1" as="geometry">
            <mxPoint x="731" y="-485.5" as="sourcePoint" />
            <mxPoint x="731" y="-522" as="targetPoint" />
          </mxGeometry>
        </mxCell>
        <mxCell id="RauLzc8qqApyDC3I54p1-105" value="" style="endArrow=none;html=1;strokeWidth=4;fillColor=#f8cecc;strokeColor=#E6E6E6;shadow=1;" edge="1" parent="1">
          <mxGeometry width="50" height="50" relative="1" as="geometry">
            <mxPoint x="711" y="-518.75" as="sourcePoint" />
            <mxPoint x="711" y="-478.75" as="targetPoint" />
          </mxGeometry>
        </mxCell>
        <mxCell id="RauLzc8qqApyDC3I54p1-106" value="" style="endArrow=none;html=1;strokeWidth=4;fillColor=#f8cecc;strokeColor=#FA0B02;" edge="1" parent="1">
          <mxGeometry width="50" height="50" relative="1" as="geometry">
            <mxPoint x="661" y="-406.75" as="sourcePoint" />
            <mxPoint x="630" y="-407" as="targetPoint" />
          </mxGeometry>
        </mxCell>
        <mxCell id="RauLzc8qqApyDC3I54p1-107" value="" style="endArrow=none;html=1;strokeWidth=2;fillColor=#f8cecc;strokeColor=#000000;startArrow=circlePlus;startFill=0;" edge="1" parent="1">
          <mxGeometry width="50" height="50" relative="1" as="geometry">
            <mxPoint x="682" y="-406.75" as="sourcePoint" />
            <mxPoint x="682" y="-443.25" as="targetPoint" />
          </mxGeometry>
        </mxCell>
        <mxCell id="RauLzc8qqApyDC3I54p1-108" value="" style="endArrow=none;html=1;strokeWidth=2;fillColor=#f8cecc;strokeColor=#000000;startArrow=none;startFill=0;" edge="1" parent="1">
          <mxGeometry width="50" height="50" relative="1" as="geometry">
            <mxPoint x="722" y="-406.75" as="sourcePoint" />
            <mxPoint x="722" y="-443.25" as="targetPoint" />
          </mxGeometry>
        </mxCell>
        <mxCell id="RauLzc8qqApyDC3I54p1-109" value="" style="endArrow=none;html=1;strokeWidth=4;fillColor=#f8cecc;strokeColor=#E6E6E6;shadow=1;" edge="1" parent="1">
          <mxGeometry width="50" height="50" relative="1" as="geometry">
            <mxPoint x="702" y="-440" as="sourcePoint" />
            <mxPoint x="702" y="-400" as="targetPoint" />
          </mxGeometry>
        </mxCell>
        <mxCell id="RauLzc8qqApyDC3I54p1-110" value="" style="endArrow=none;html=1;strokeWidth=3;fillColor=#f8cecc;startArrow=none;startFill=0;edgeStyle=orthogonalEdgeStyle;" edge="1" parent="1">
          <mxGeometry width="50" height="50" relative="1" as="geometry">
            <mxPoint x="711" y="-441" as="sourcePoint" />
            <mxPoint x="651" y="-441" as="targetPoint" />
            <Array as="points">
              <mxPoint x="711" y="-461" />
              <mxPoint x="651" y="-461" />
            </Array>
          </mxGeometry>
        </mxCell>
      </root>
    </mxGraphModel>
  </diagram>
</mxfile>
